<svg width="114" height="18" viewBox="0 0 114 18" fill="none" xmlns="http://www.w3.org/2000/svg">
<g clip-path="url(#clip0_117_4065)">
<path d="M18 6.954L11.4596 6.524L8.99641 0.335938L6.53326 6.524L0 6.954L5.01096 11.2088L3.36663 17.6631L8.99641 14.1046L14.6262 17.6631L12.9819 11.2088L18 6.954Z" fill="#EC1C24"/>
</g>
<g clip-path="url(#clip1_117_4065)">
<path d="M42 6.954L35.4596 6.524L32.9964 0.335938L30.5333 6.524L24 6.954L29.011 11.2088L27.3666 17.6631L32.9964 14.1046L38.6262 17.6631L36.9819 11.2088L42 6.954Z" fill="#EC1C24"/>
</g>
<g clip-path="url(#clip2_117_4065)">
<path d="M66 6.954L59.4596 6.524L56.9964 0.335938L54.5333 6.524L48 6.954L53.011 11.2088L51.3666 17.6631L56.9964 14.1046L62.6262 17.6631L60.9819 11.2088L66 6.954Z" fill="#EC1C24"/>
</g>
<g clip-path="url(#clip3_117_4065)">
<path d="M90 6.954L83.4596 6.524L80.9964 0.335938L78.5333 6.524L72 6.954L77.011 11.2088L75.3666 17.6631L80.9964 14.1046L86.6262 17.6631L84.9819 11.2088L90 6.954Z" fill="#EC1C24"/>
</g>
<g clip-path="url(#clip4_117_4065)">
<path d="M114 6.954L107.46 6.524L104.996 0.335938L102.533 6.524L96 6.954L101.011 11.2088L99.3666 17.6631L104.996 14.1046L110.626 17.6631L108.982 11.2088L114 6.954Z" fill="#EC1C24"/>
</g>
<defs>
<clipPath id="clip0_117_4065">
<rect width="18" height="18" fill="white"/>
</clipPath>
<clipPath id="clip1_117_4065">
<rect width="18" height="18" fill="white" transform="translate(24)"/>
</clipPath>
<clipPath id="clip2_117_4065">
<rect width="18" height="18" fill="white" transform="translate(48)"/>
</clipPath>
<clipPath id="clip3_117_4065">
<rect width="18" height="18" fill="white" transform="translate(72)"/>
</clipPath>
<clipPath id="clip4_117_4065">
<rect width="18" height="18" fill="white" transform="translate(96)"/>
</clipPath>
</defs>
</svg>
