<svg width="193" height="91" viewBox="0 0 193 91" fill="none" xmlns="http://www.w3.org/2000/svg">
<path d="M73.7871 21.2949C76.123 23.0723 77.054 25.3828 76.5801 28.2266C76.123 31.0534 75.319 33.7533 74.168 36.3262C73.9648 36.8171 73.7702 37.291 73.584 37.748C72.9238 39.4746 72.2467 41.2096 71.5527 42.9531C69.2676 48.3529 67.3379 53.8457 65.7637 59.4316C64.2064 65.0007 63.7578 70.7389 64.418 76.6465C64.4688 77.3743 64.2148 77.9329 63.6562 78.3223C63.1146 78.7116 62.4967 78.8724 61.8027 78.8047C61.1257 78.737 60.6094 78.39 60.2539 77.7637C58.612 74.1413 57.9603 70.3835 58.2988 66.4902C58.6543 62.597 59.5768 58.6699 61.0664 54.709C62.556 50.748 64.1979 46.8633 65.9922 43.0547C68.125 38.5859 69.8431 34.3711 71.1465 30.4102C71.7897 28.1081 71.502 26.8216 70.2832 26.5508C69.0814 26.2799 67.4395 26.5931 65.3574 27.4902C63.2754 28.3704 61.2695 29.403 59.3398 30.5879C57.4102 31.7728 56.0391 32.6784 55.2266 33.3047C49.1159 38.0443 43.3353 43.1562 37.8848 48.6406C29.1165 57.3073 20.7884 66.3633 12.9004 75.8086C9.73503 80.5651 6.52734 85.2878 3.27734 89.9766C2.85417 90.5352 2.37174 90.7891 1.83008 90.7383C1.27148 90.6875 0.839844 90.4336 0.535156 89.9766C0.213542 89.5365 0.196615 88.9948 0.484375 88.3516C7.98307 72.9987 16.9798 57.8574 27.4746 42.9277C37.9863 27.9811 48.9889 14.1602 60.4824 1.46484C61.1426 0.804688 61.8366 0.576172 62.5645 0.779297C63.3092 0.982422 63.8678 1.43099 64.2402 2.125C64.6296 2.81901 64.638 3.57227 64.2656 4.38477C62.6237 7.5332 60.9056 10.6309 59.1113 13.6777C58.6882 14.3548 58.1719 14.7272 57.5625 14.7949C56.9531 14.8626 56.3861 14.7188 55.8613 14.3633C46.6699 25.9245 38.0117 37.875 29.8867 50.2148C35.0664 44.7474 40.5254 39.6185 46.2637 34.8281C46.6361 34.5065 47.0762 34.1341 47.584 33.7109C49.6152 31.9336 52.2559 29.8177 55.5059 27.3633C58.7728 24.8919 62.0736 22.9368 65.4082 21.498C68.7428 20.0592 71.5358 19.9915 73.7871 21.2949ZM121.572 50.5703C116.376 55.5638 110.697 59.9225 104.535 63.6465C102.538 64.8822 100.261 65.9909 97.7051 66.9727C95.166 67.9375 92.7031 68.1576 90.3164 67.6328C88.2852 67.0404 86.8125 65.9993 85.8984 64.5098C84.9674 63.0202 84.5273 61.3444 84.5781 59.4824C84.6289 57.6035 85.0944 55.7923 85.9746 54.0488C86.4824 53.1009 87.3203 52.0007 88.4883 50.748C89.6562 49.4954 90.9766 48.4121 92.4492 47.498C93.9388 46.5671 95.4876 46.0339 97.0957 45.8984C98.7207 45.7461 100.007 46.3639 100.955 47.752C101.988 49.4785 101.886 51.4251 100.65 53.5918C99.4316 55.7585 97.7897 57.5189 95.7246 58.873C93.6764 60.2272 91.6283 61.1751 89.5801 61.7168C90.291 62.9863 91.6621 63.4688 93.6934 63.1641C95.7246 62.8424 98.0775 62.0384 100.752 60.752C103.426 59.4486 106.101 57.9759 108.775 56.334C111.45 54.6751 113.786 53.1432 115.783 51.7383C117.798 50.3333 119.143 49.36 119.82 48.8184C120.243 48.5306 120.658 48.4629 121.064 48.6152C121.488 48.7676 121.767 49.0384 121.902 49.4277C122.055 49.8001 121.945 50.181 121.572 50.5703ZM93.8711 52.0684C92.263 53.1178 90.9766 54.5736 90.0117 56.4355C91.0951 56.0632 92.2546 55.3691 93.4902 54.3535C94.7428 53.321 95.4792 52.5423 95.6992 52.0176C95.9362 51.4928 95.877 51.2559 95.5215 51.3066C95.166 51.3405 94.6159 51.5944 93.8711 52.0684ZM158.135 51.9668C156.899 53.3887 155.198 54.7005 153.031 55.9023C150.865 57.1042 148.859 57.7051 147.014 57.7051C146.929 57.7051 146.853 57.7051 146.785 57.7051C145.566 57.7051 144.669 57.722 144.094 57.7559C143.535 57.7897 143.137 57.8913 142.9 58.0605C142.663 58.2129 142.426 58.4414 142.189 58.7461C141.952 59.0508 141.115 59.9395 139.676 61.4121C137.171 63.5111 134.919 64.2051 132.922 63.4941C130.924 62.7663 129.79 60.7266 129.52 57.375C128.673 58.6953 126.566 60.7858 123.197 63.6465C119.829 66.5072 117.12 68.3099 115.072 69.0547C113.024 69.7995 111.34 69.4017 110.02 67.8613C108.699 66.321 108.564 64.1966 109.613 61.4883C110.663 58.7799 112.042 56.3932 113.752 54.3281C115.445 52.263 117.146 50.3926 118.855 48.7168C119.448 48.1074 119.998 47.5404 120.506 47.0156C120.98 46.5755 121.496 46.4316 122.055 46.584C122.613 46.7363 123.028 47.0579 123.299 47.5488C123.587 48.0228 123.544 48.5306 123.172 49.0723C122.562 49.9017 121.928 50.7227 121.268 51.5352C119.761 53.3464 118.39 55.2337 117.154 57.1973C113.972 62.7155 113.481 64.9583 115.682 63.9258C117.73 62.4193 119.727 60.752 121.674 58.9238C122.148 58.4837 122.639 58.0182 123.146 57.5273C126.21 54.6667 128.419 53.0671 129.773 52.7285C131.145 52.39 132.245 52.737 133.074 53.7695C133.497 54.4128 133.768 54.9544 133.887 55.3945C134.005 55.8346 134.09 56.4017 134.141 57.0957C134.141 57.1803 134.149 57.2734 134.166 57.375C134.285 58.2214 134.682 58.5938 135.359 58.4922C136.053 58.3906 137.78 57.0957 140.539 54.6074C141.148 54.0319 141.69 53.6849 142.164 53.5664C142.655 53.4479 143.095 53.4395 143.484 53.541C146.176 54.3366 148.359 54.4212 150.035 53.7949C151.728 53.1686 153.209 52.3392 154.479 51.3066C155.156 50.7988 155.841 50.3333 156.535 49.9102C157.009 49.6732 157.415 49.6562 157.754 49.8594C158.109 50.0625 158.329 50.3672 158.414 50.7734C158.516 51.1797 158.423 51.5775 158.135 51.9668ZM191.346 51.5352C186.369 53.2617 181.867 55.0814 177.838 56.9941C173.826 58.9069 169.628 61.3444 165.244 64.3066C166.04 65.5592 166.438 66.9811 166.438 68.5723C166.37 72.4486 164.686 75.5547 161.385 77.8906C160.369 78.6693 159.015 79.5495 157.322 80.5312C155.63 81.5299 153.852 82.3255 151.99 82.918C150.128 83.5273 148.452 83.6374 146.963 83.248C145.456 82.8757 144.398 81.7077 143.789 79.7441C143.366 77.8652 143.874 75.9863 145.312 74.1074C146.751 72.2285 148.537 70.4935 150.67 68.9023C152.786 67.2943 154.648 65.9824 156.256 64.9668C156.611 64.7298 156.924 64.5182 157.195 64.332C157.043 64.1628 156.899 63.9935 156.764 63.8242C155.799 62.6562 155.037 61.5221 154.479 60.4219C153.903 59.3047 153.497 58.0013 153.26 56.5117C152.955 53.651 153.759 51.222 155.672 49.2246C157.568 47.2103 159.777 45.8392 162.299 45.1113C163.365 44.8574 164.186 45.0267 164.762 45.6191C165.337 46.1947 165.608 46.9225 165.574 47.8027C165.54 48.6829 165.143 49.4362 164.381 50.0625C162.417 51.6029 161.199 52.9909 160.725 54.2266C160.268 55.4453 160.276 56.5964 160.75 57.6797C161.241 58.763 161.935 59.8379 162.832 60.9043C167.555 58.0944 172.049 55.75 176.314 53.8711C180.597 51.9922 185.328 50.1979 190.508 48.4883C191.168 48.319 191.667 48.4375 192.006 48.8438C192.361 49.25 192.497 49.7324 192.412 50.291C192.327 50.8496 191.972 51.2643 191.346 51.5352ZM158.439 74.3359C160.064 72.931 160.953 71.653 161.105 70.502C161.258 69.3509 161.012 68.3861 160.369 67.6074C158.253 69.0462 156.222 70.5781 154.275 72.2031C154.089 72.3555 153.911 72.5078 153.742 72.6602C152.574 73.5911 151.482 74.6068 150.467 75.707C148.215 78.4154 148.579 79.2109 151.559 78.0938C154.521 76.9935 156.814 75.7409 158.439 74.3359Z" fill="#D4D4D4"/>
</svg>
