<svg width="21" height="21" viewBox="0 0 21 21" fill="none" xmlns="http://www.w3.org/2000/svg">
<path d="M7.29133 18.9408C7.22093 18.9408 7.15176 18.9224 7.09067 18.8874C7.02958 18.8524 6.97869 18.8021 6.94305 18.7413C5.43352 16.1696 1.41101 10.6963 1.37054 10.6413C1.31307 10.5632 1.28563 10.467 1.29324 10.3703C1.30085 10.2736 1.34299 10.1829 1.41198 10.1147L2.64847 8.89287C2.71565 8.82649 2.80397 8.78575 2.89807 8.77774C2.99217 8.76972 3.08611 8.79494 3.16354 8.84901L7.20713 11.6725C9.89545 8.21901 12.3937 5.83563 14.0358 4.4313C15.8763 2.85699 17.0465 2.14957 17.0954 2.12009C17.1582 2.08241 17.23 2.0625 17.3032 2.0625H19.3035C19.3854 2.06249 19.4654 2.08736 19.5328 2.13382C19.6002 2.18028 19.6519 2.24614 19.681 2.32265C19.7101 2.39917 19.7153 2.48273 19.6959 2.56226C19.6764 2.64179 19.6333 2.71354 19.5721 2.76798C16.6066 5.40913 13.5235 9.60562 11.4593 12.6608C9.21546 15.9818 7.65774 18.7096 7.64227 18.7368C7.60721 18.7983 7.55657 18.8496 7.49544 18.8854C7.43431 18.9212 7.36484 18.9403 7.294 18.9407L7.29133 18.9408Z" fill="#463998"/>
</svg>
